<svg xmlns="http://www.w3.org/2000/svg" width="247.004" height="58.48" viewBox="0 0 247.004 58.48">
  <g id="Group_15223" data-name="Group 15223" transform="translate(164.228 -226.991)">
    <path id="Path_87689" data-name="Path 87689" d="M1148.636,311.694v-6.309c1.449,0,2.753-.09,4.039.024,1.447.127,2.006-.3,1.919-1.842-.131-2.328-.034-4.669-.034-7.272h10.993v5.443c0,3.647,0,3.647,3.719,3.647,1.369,0,2.739.051,4.1-.016.993-.049,1.265.355,1.237,1.283-.054,1.8-.061,3.61,0,5.412.035,1-.26,1.392-1.316,1.358-2.148-.069-4.3.01-6.45-.032-.929-.019-1.319.287-1.308,1.254.036,3.12-.033,6.242.022,9.362a4.008,4.008,0,0,0,4.117,4.21,13.7,13.7,0,0,0,3.187-.223c.872-.159,1.291.064,1.443.918.351,1.961.768,3.911,1.049,5.882a1.385,1.385,0,0,1-.651,1.155c-5.42,1.813-10.81,1.9-15.75-1.259-3.209-2.055-4.207-5.53-4.357-9.153-.143-3.456-.106-6.925-.011-10.384.04-1.451-.463-1.893-1.844-1.771-1.151.1-2.318.021-3.315.021.385,3.233.749,6.291,1.148,9.651h-21.25a5.884,5.884,0,0,0,5.071,5.747,18,18,0,0,0,11.379-1.707c.39-.184.777-.372,1.323-.633.847,2.242,1.706,4.4,2.437,6.6.084.254-.465.958-.845,1.088-2.935,1-5.842,2.287-8.871,2.757a20.84,20.84,0,0,1-13.224-2.062c-5.991-3.193-8.29-8.492-8-14.946a15.245,15.245,0,0,1,7.311-12.8c5.874-3.747,17.554-3.616,22.02,4.183a6.322,6.322,0,0,0,.4.556l.3-.145m-7.462,6.161c-.018-4.087-2.508-6.509-6.208-6.162-3.384.317-6.084,3.3-5.575,6.162Z" transform="translate(-1185.112 -63.124)" fill="#fff"/>
    <path id="Path_87690" data-name="Path 87690" d="M924.9,350.7v-3.841h10.657c.029.469.087.981.088,1.493.006,8.729.068,17.459-.013,26.188-.092,9.894-6.141,14.787-15.232,15.3a35.878,35.878,0,0,1-12.756-1.188c-1.794-.556-3.5-1.409-5.383-2.186l2.869-7.475a27.421,27.421,0,0,0,12.827,2.882c4.631-.157,6.989-2.5,7-7.134,0-.759,0-1.517,0-2.673-.816.832-1.314,1.408-1.88,1.906-5.259,4.62-14.04,3.811-18.495-1.69-4.583-5.66-4.536-15.688-.127-21.461,4.524-5.923,15.35-6.559,19.792-.536.077.1.232.152.65.413m-.085,10.744c-.052-.629-.075-1.263-.16-1.887a6.048,6.048,0,0,0-4.967-5.389c-3.227-.392-5.7.884-6.762,3.609a10,10,0,0,0-.02,7.4,5.934,5.934,0,0,0,6.73,3.659c3.365-.657,5.2-3.275,5.179-7.39" transform="translate(-1004.491 -104.464)" fill="#fff"/>
    <path id="Path_87691" data-name="Path 87691" d="M1490.827,314.589c-3.321,0-6.391,0-9.462,0-.432,0-.863-.037-1.448-.064-.029-.621-.078-1.187-.079-1.752-.006-5.265,0-10.529-.01-15.794a15.114,15.114,0,0,0-.136-2.036c-.24-1.742-.858-3.254-2.823-3.63-2.149-.412-4.232-.1-5.492,1.811a8.143,8.143,0,0,0-1.337,4.034c-.152,5.211-.061,10.43-.06,15.646v1.789h-7.561c-3.472,0-3.472,0-3.472-3.418q0-19.6,0-39.193c0-2.041,0-2.043,2.105-2.044,2.541,0,5.082.036,7.621-.016,1.027-.021,1.335.344,1.326,1.356-.045,4.679-.02,9.359-.02,14.039v1.909c.538-.49.855-.747,1.134-1.038,3.674-3.838,9.905-4.092,13.9-2.471,3.578,1.453,4.934,4.526,5.483,8.046a31.63,31.63,0,0,1,.319,4.651c.037,5.46.014,10.919.014,16.379v1.8" transform="translate(-1467.862 -41.212)" fill="#fff"/>
    <path id="Path_87692" data-name="Path 87692" d="M692.754,362.32c0-9.347,6.353-15.795,15.713-16.052,4.117-.113,8.093.266,11.682,2.5A14.122,14.122,0,0,1,727,360.53a22.2,22.2,0,0,1-.617,7.068c-1.751,6.366-6.27,9.86-12.7,10.661a26.479,26.479,0,0,1-8.55-.192c-8.025-1.681-12.375-7.444-12.373-15.747m11.048-.284c.071,1.082.072,1.817.179,2.536a11.539,11.539,0,0,0,.5,2.124,5.767,5.767,0,0,0,10.988-.245,13.917,13.917,0,0,0,.049-7.915,5.811,5.811,0,0,0-11.29.379c-.238,1.136-.318,2.3-.425,3.121" transform="translate(-831.374 -104.622)" fill="#fff"/>
    <path id="Path_87693" data-name="Path 87693" d="M1670.878,364.218c-.077,2.91,1.985,5.177,5.122,5.765a17.941,17.941,0,0,0,11.23-1.719c.391-.186.778-.38,1.339-.654.827,2.175,1.687,4.274,2.376,6.429.106.333-.481,1.192-.91,1.34-2.931,1.011-5.848,2.312-8.878,2.728a20.944,20.944,0,0,1-13.592-2.376c-4.809-2.772-7.132-7.052-7.424-12.476-.356-6.619,1.981-11.947,7.889-15.345,5.68-3.266,15.666-2.916,20.268,2.983,2.9,3.712,3.662,7.972,3.424,12.523-.053,1.014-.807.794-1.4.8q-8.941.016-17.882.007h-1.565m-.166-5.185h11.86a5.377,5.377,0,0,0-4.981-6.17c-3.694-.388-6.628,2.2-6.879,6.17" transform="translate(-1634.968 -104.29)" fill="#fff"/>
    <path id="Path_87694" data-name="Path 87694" d="M541.482,313.314V305.3c1.466,0,2.868-.072,4.259.021,1.249.083,1.6-.41,1.561-1.6-.073-2.426-.022-4.856-.022-7.515h3.9c1.955,0,3.91.042,5.863-.016.969-.029,1.275.319,1.251,1.266-.054,2.144.028,4.291-.033,6.435-.031,1.084.354,1.458,1.438,1.425,2.148-.065,4.3.013,6.449-.033.891-.019,1.212.288,1.189,1.181q-.073,2.851,0,5.7c.025.919-.347,1.176-1.212,1.159-2.149-.042-4.3.035-6.449-.032-1.112-.035-1.433.4-1.416,1.452.048,3.022-.017,6.046.023,9.068a4.036,4.036,0,0,0,4.163,4.316,13.771,13.771,0,0,0,3.185-.236c.9-.164,1.265.143,1.41.97.336,1.914.748,3.817,1.008,5.74a1.5,1.5,0,0,1-.655,1.266c-5.366,1.785-10.706,1.882-15.621-1.211-3.286-2.068-4.3-5.574-4.448-9.248-.144-3.553-.07-7.118-.025-10.676.013-1.067-.322-1.5-1.424-1.439-1.4.073-2.816.018-4.392.018" transform="translate(-705.71 -63.035)" fill="#fff"/>
    <path id="Path_87695" data-name="Path 87695" d="M1871.379,377.007h-11.143V346.074H1870.8v4.557l.341.254c2.58-5.138,7.254-5.563,12.2-5.746.217,3.022.427,5.962.654,9.12-1.837.2-3.611.382-5.383.588a23.607,23.607,0,0,0-2.744.4,5.476,5.476,0,0,0-4.476,5.7c-.033,4.775-.011,9.551-.012,14.326,0,.527,0,1.055,0,1.731" transform="translate(-1801.219 -103.7)" fill="#fff"/>
    <path id="Path_87696" data-name="Path 87696" d="M1700.823,268.99h-9.19c0-2.9-.017-5.743.037-8.585,0-.193.539-.534.831-.539,2.482-.043,4.966-.054,7.447.014a1.2,1.2,0,0,1,.836.826c.065,2.709.038,5.42.038,8.283" transform="translate(-1661.155 -32.834)" fill="#fff"/>
    <path id="Path_87697" data-name="Path 87697" d="M1778.637,268.927h-9.213c0-2.842-.027-5.6.042-8.35.007-.265.6-.729.932-.738,2.433-.063,4.87-.069,7.3.009a1.306,1.306,0,0,1,.9.909c.073,2.666.041,5.334.041,8.17" transform="translate(-1725.776 -32.8)" fill="#fff"/>
  </g>
</svg>
